<svg width="17" height="19" viewBox="0 0 17 19" fill="none" xmlns="http://www.w3.org/2000/svg">
<path fill-rule="evenodd" clip-rule="evenodd" d="M0 2.75C0 1.508 1.02528 0.5 2.28858 0.5H5.55797C5.8181 0.5 6.06758 0.601594 6.25152 0.782433C6.43546 0.963271 6.53879 1.20854 6.53879 1.46429C6.53879 1.72003 6.43546 1.9653 6.25152 2.14614C6.06758 2.32698 5.8181 2.42857 5.55797 2.42857H2.28858C2.20187 2.42857 2.11871 2.46244 2.0574 2.52272C1.99608 2.583 1.96164 2.66475 1.96164 2.75V16.25C1.96164 16.4274 2.10811 16.5714 2.28858 16.5714H5.55797C5.8181 16.5714 6.06758 16.673 6.25152 16.8539C6.43546 17.0347 6.53879 17.28 6.53879 17.5357C6.53879 17.7915 6.43546 18.0367 6.25152 18.2176C6.06758 18.3984 5.8181 18.5 5.55797 18.5H2.28858C1.68161 18.5 1.0995 18.2629 0.670309 17.841C0.241117 17.419 0 16.8467 0 16.25V2.75ZM13.653 8.53571H6.21185C5.95172 8.53571 5.70225 8.63731 5.51831 8.81815C5.33437 8.99899 5.23103 9.24426 5.23103 9.5C5.23103 9.75574 5.33437 10.001 5.51831 10.1819C5.70225 10.3627 5.95172 10.4643 6.21185 10.4643H13.653L11.0767 12.9971C10.9804 13.0854 10.9031 13.1919 10.8495 13.3102C10.7958 13.4284 10.767 13.5561 10.7647 13.6856C10.7624 13.8151 10.7866 13.9437 10.8359 14.0638C10.8853 14.1838 10.9587 14.2929 11.0518 14.3845C11.145 14.476 11.2559 14.5482 11.378 14.5967C11.5002 14.6452 11.631 14.669 11.7627 14.6668C11.8944 14.6645 12.0242 14.6361 12.1446 14.5834C12.2649 14.5307 12.3731 14.4547 12.4629 14.36L16.7132 10.1814C16.8968 10.0006 17 9.75554 17 9.5C17 9.24446 16.8968 8.99938 16.7132 8.81857L12.4629 4.64C12.3731 4.54526 12.2649 4.46927 12.1446 4.41657C12.0242 4.36386 11.8944 4.33552 11.7627 4.33324C11.631 4.33095 11.5002 4.35477 11.378 4.40327C11.2559 4.45177 11.145 4.52395 11.0518 4.61552C10.9587 4.70709 10.8853 4.81616 10.8359 4.93623C10.7866 5.0563 10.7624 5.18491 10.7647 5.31439C10.767 5.44386 10.7958 5.57155 10.8495 5.68983C10.9031 5.80812 10.9804 5.91458 11.0767 6.00286L13.653 8.53571Z" fill="white"/>
</svg>
